:SAMPLES-PER-SECOND 30
:FULLY-SPECIFIED
:DEGREES
253
root  -1.29379 5.99863 15.4902 -46.4531 -4.47372 2.03248
RightUpLeg  -88.4491 -10.1341 5.58398
RightLeg  89.4634 16.1915 -7.80754
RightFoot  29.5259 2.81702 -7.50185
RightToes  5.82077e-011 -3.18055e-015 -2.98177e-016
Spine  34.3768 1.97621 2.91778
Spine1  13.3099 -0.753731 3.43381
HEad  -11.2011 19.8012 16.6786
LeftShoulder1  -3.88251e-019 9.70628e-020 -3.87848e-018
LeftArm  -0.511777 -46.1435 -38.9676
LeftForeArm  16.7754 -19.3236 5.94133
LeftHand  -9.58693 -13.7801 54.9584
RightShoulder  -0.888378 -0.471992 -11.666
RightArm  3.27806 38.3768 47.1581
RightForeArm  38.6102 26.5366 -15.6114
RightHand  -10.4856 11.3784 -64.534
LeftUpLeg  -87.7579 7.38261 1.76953
LeftLeg  90.5734 -13.9456 7.78053
LeftFoot  31.0808 0.161604 -0.176425
LeftToes  5.91571e-011 -3.44359e-011 -3.93244e-011
254
root  -1.31273 5.98056 15.4748 -46.6719 -4.25086 2.14465
RightUpLeg  -88.2603 -10.2515 5.35684
RightLeg  89.4488 16.1898 -7.80807
RightFoot  29.7112 2.79412 -7.41017
RightToes  5.82077e-011 -3.18055e-015 -2.98177e-016
Spine  33.7813 1.80459 2.93828
Spine1  14.4673 -0.816558 2.92572
HEad  -10.7119 19.1079 17.2501
LeftShoulder1  -3.88251e-019 9.70628e-020 -3.87848e-018
LeftArm  -8.3545 -45.2237 -43.6882
LeftForeArm  -11.1157 -18.7855 6.75781
LeftHand  -8.26149 -12.2985 51.9671
RightShoulder  -0.867058 -0.323898 -11.3734
RightArm  -5.04417 37.9075 52.4762
RightForeArm  30.7756 22.4439 -13.2917
RightHand  -8.68466 9.39327 -61.3807
LeftUpLeg  -87.4575 7.29301 1.66098
LeftLeg  90.2446 -13.95 8.4357
LeftFoot  31.1786 0.190168 -0.245392
LeftToes  5.91571e-011 -3.44359e-011 -3.93244e-011
255
root  -1.33874 5.95306 15.4536 -46.9888 -3.85479 2.25574
RightUpLeg  -88.056 -10.4618 4.9601
RightLeg  89.5267 16.1989 -7.80205
RightFoot  29.7287 2.80633 -7.43807
RightToes  5.82077e-011 -3.18055e-015 -2.98177e-016
Spine  33.7989 1.70865 2.77634
Spine1  15.2537 -0.885525 2.64512
HEad  -11.5856 17.9398 17.229
LeftShoulder1  -3.88251e-019 9.70628e-020 -3.87848e-018
LeftArm  -16.6004 -44.0347 -45.9723
LeftForeArm  -43.323 -22.8264 6.13071
LeftHand  -7.73122 -10.4841 53.994
RightShoulder  -0.810938 -0.173302 -10.6338
RightArm  -16.5133 36.2566 56.5008
RightForeArm  13.6294 23.0952 -13.0437
RightHand  -7.32156 7.20354 -60.7503
LeftUpLeg  -87.0833 7.06891 1.41038
LeftLeg  89.9592 -13.9439 8.92069
LeftFoot  31.1521 0.292221 -0.497026
LeftToes  5.91571e-011 -3.44359e-011 -3.93244e-011
256
root  -1.36821 5.93643 15.4329 -47.2429 -3.61275 2.35291
RightUpLeg  -87.9085 -10.5192 4.69554
RightLeg  89.612 16.2097 -7.8092
RightFoot  29.5611 2.82375 -7.51252
RightToes  5.82077e-011 -3.18055e-015 -2.98177e-016
Spine  34.2937 1.68873 2.83208
Spine1  15.3599 -0.778538 2.40215
HEad  -13.0698 16.3288 16.8444
LeftShoulder1  -3.88251e-019 9.70628e-020 -3.87848e-018
LeftArm  -18.5695 -43.2565 -46.7601
LeftForeArm  -59.034 -24.889 5.30389
LeftHand  -6.99538 -8.67081 55.0178
RightShoulder  -0.740504 0.0423724 -9.74975
RightArm  -24.4628 34.65 59.0177
RightForeArm  -16.3458 27.3099 -13.8984
RightHand  -5.7132 4.7313 -59.2076
LeftUpLeg  -86.804 6.98404 1.25615
LeftLeg  89.8537 -13.9378 9.05738
LeftFoot  30.8919 0.410619 -0.795346
LeftToes  5.91571e-011 -3.44359e-011 -3.93244e-011
257
root  -1.38892 5.94743 15.4178 -47.1821 -3.5871 2.402
RightUpLeg  -87.9804 -10.4235 4.69483
RightLeg  89.5922 16.21 -7.85554
RightFoot  29.4108 2.83853 -7.57772
RightToes  5.82077e-011 -3.18055e-015 -2.98177e-016
Spine  34.5975 1.73844 3.13807
Spine1  15.3227 -0.531141 2.1952
HEad  -14.7508 14.8841 16.182
LeftShoulder1  -3.88251e-019 9.70628e-020 -3.87848e-018
LeftArm  -12.3375 -43.0687 -46.7351
LeftForeArm  -48.0475 -22.9145 5.2122
LeftHand  -6.09761 -8.05995 51.0385
RightShoulder  -0.666236 0.312668 -8.88027
RightArm  -30.4389 33.7189 59.8892
RightForeArm  -48.7528 32.6202 -15.3511
RightHand  -4.80411 3.67974 -56.0758
LeftUpLeg  -86.8417 7.04995 1.24047
LeftLeg  89.846 -13.9354 9.03619
LeftFoot  30.5437 0.454346 -0.914059
LeftToes  5.91571e-011 -3.44359e-011 -3.93244e-011
258
root  -1.39046 5.96783 15.4121 -46.9336 -3.60148 2.37126
RightUpLeg  -88.1643 -10.387 4.79925
RightLeg  89.5295 16.2009 -7.83231
RightFoot  29.4702 2.91629 -7.76486
RightToes  5.82077e-011 -3.18055e-015 -2.98177e-016
Spine  34.6959 1.75655 3.41936
Spine1  15.2869 -0.38964 2.11601
HEad  -16.3288 13.8449 15.092
LeftShoulder1  -3.88251e-019 9.70628e-020 -3.87848e-018
LeftArm  -5.33174 -42.9033 -45.7416
LeftForeArm  -18.4965 -20.6589 4.92654
LeftHand  -6.93518 -9.9718 50.46
RightShoulder  -0.612609 0.517697 -8.28963
RightArm  -32.7344 33.1393 58.9267
RightForeArm  -65.0367 35.5652 -16.43
RightHand  -2.91259 0.40278 -53.3258
LeftUpLeg  -87.0688 7.05618 1.25849
LeftLeg  89.8055 -13.9348 9.11618
LeftFoot  30.3595 0.411517 -0.812468
LeftToes  5.91571e-011 -3.44359e-011 -3.93244e-011
259
root  -1.37203 5.96802 15.4211 -46.8418 -3.54147 2.27057
RightUpLeg  -88.2138 -10.5392 4.81717
RightLeg  89.5542 16.1962 -7.70134
RightFoot  29.6661 3.02109 -7.99414
RightToes  5.82077e-011 -3.18055e-015 -2.98177e-016
Spine  35.061 1.61495 3.54338
Spine1  14.944 -0.488291 2.06774
HEad  -17.4256 12.9625 13.9011
LeftShoulder1  -3.88251e-019 9.70628e-020 -3.87848e-018
LeftArm  -0.569356 -42.4359 -44.0374
LeftForeArm  7.04095 -21.8661 4.99036
LeftHand  -8.784 -12.3711 54.5466
RightShoulder  -0.596774 0.639254 -8.15083
RightArm  -27.8366 32.5126 56.3916
RightForeArm  -59.5202 35.4015 -16.5563
RightHand  -1.02032 -3.18551 -49.2317
LeftUpLeg  -87.1768 6.89477 1.24301
LeftLeg  89.7417 -13.9362 9.28456
LeftFoot  30.4894 0.326943 -0.597388
LeftToes  5.91571e-011 -3.44359e-011 -3.93244e-011
260
root  -1.34736 5.95476 15.448 -46.837 -3.47763 2.20424
RightUpLeg  -88.2526 -10.7121 4.75584
RightLeg  89.6324 16.2032 -7.66117
RightFoot  29.7875 3.0091 -7.94029
RightToes  5.82077e-011 -3.18055e-015 -2.98177e-016
Spine  35.5466 1.41839 3.50404
Spine1  14.5145 -0.689669 1.99142
HEad  -18.0682 12.2025 13.2283
LeftShoulder1  -3.88251e-019 9.70628e-020 -3.87848e-018
LeftArm  3.59489 -42.1249 -42.5057
LeftForeArm  26.3939 -25.0607 6.05699
LeftHand  -10.1725 -14.4585 56.1094
RightShoulder  -0.606684 0.718569 -8.31143
RightArm  -19.553 32.1188 53.1539
RightForeArm  -36.3043 33.7641 -16.6145
RightHand  -1.38662 -1.96473 -44.3852
LeftUpLeg  -87.2218 6.7504 1.1631
LeftLeg  89.7234 -13.9387 9.36551
LeftFoot  30.9125 0.234895 -0.359959
LeftToes  5.91571e-011 -3.44359e-011 -3.93244e-011
261
root  -1.33434 5.95699 15.4743 -46.7099 -3.6414 2.18247
RightUpLeg  -88.3797 -10.6188 4.87862
RightLeg  89.5895 16.2095 -7.85436
RightFoot  29.7878 2.89996 -7.66424
RightToes  5.82077e-011 -3.18055e-015 -2.98177e-016
Spine  35.7659 1.39294 3.45168
Spine1  14.5341 -0.751619 2.04222
HEad  -18.6814 11.6748 12.9991
LeftShoulder1  -3.88251e-019 9.70628e-020 -3.87848e-018
LeftArm  6.51787 -42.5004 -41.7552
LeftForeArm  35.2066 -27.5643 7.09735
LeftHand  -10.4884 -15.2936 55.5281
RightShoulder  -0.626115 0.681895 -8.5349
RightArm  -14.2322 32.3029 50.1167
RightForeArm  -11.3273 33.3371 -17.6206
RightHand  -3.56262 3.08299 -45.5153
LeftUpLeg  -87.345 6.87633 1.20584
LeftLeg  89.7407 -13.9373 9.30339
LeftFoot  31.4915 0.150359 -0.144052
LeftToes  5.91571e-011 -3.44359e-011 -3.93244e-011
262
root  -1.33158 5.98288 15.4918 -46.3905 -3.97328 2.1422
RightUpLeg  -88.6097 -10.3525 5.21909
RightLeg  89.4723 16.2051 -8.02294
RightFoot  29.793 2.88639 -7.62893
RightToes  5.82077e-011 -3.18055e-015 -2.98177e-016
Spine  35.6691 1.52022 3.50937
Spine1  14.9084 -0.663437 2.2348
HEad  -19.408 11.2151 12.5533
LeftShoulder1  -3.88251e-019 9.70628e-020 -3.87848e-018
LeftArm  8.09772 -43.2276 -41.8532
LeftForeArm  27.3798 -28.2597 7.03371
LeftHand  -10.0855 -14.731 55.0184
RightShoulder  -0.643765 0.508514 -8.67811
RightArm  -13.7354 32.5169 47.7221
RightForeArm  14.1541 34.6334 -19.6386
RightHand  -6.69148 8.34374 -52.0754
LeftUpLeg  -87.5997 7.13814 1.41232
LeftLeg  89.7283 -13.933 9.26492
LeftFoot  32.0484 0.0805576 0.0301195
LeftToes  5.91571e-011 -3.44359e-011 -3.93244e-011
263
root  -1.32477 6.00966 15.5095 -46.081 -4.24903 2.07566
RightUpLeg  -88.8169 -10.1899 5.53292
RightLeg  89.451 16.1962 -7.91642
RightFoot  29.8634 2.99155 -7.88144
RightToes  5.82077e-011 -3.18055e-015 -2.98177e-016
Spine  35.6282 1.58824 3.67419
Spine1  15.0089 -0.582554 2.34485
HEad  -19.9884 10.7529 11.8107
LeftShoulder1  -3.88251e-019 9.70628e-020 -3.87848e-018
LeftArm  7.35162 -43.4623 -42.4217
LeftForeArm  9.8977 -28.4213 6.40408
LeftHand  -9.46033 -13.7786 54.3393
RightShoulder  -0.639367 0.436147 -8.59099
RightArm  -16.6117 32.1235 46.3365
RightForeArm  35.6148 37.2702 -22.2449
RightHand  -10.125 12.5934 -59.4123
LeftUpLeg  -87.8474 7.26571 1.65081
LeftLeg  89.7071 -13.9342 9.33306
LeftFoot  32.4162 0.0189127 0.179613
LeftToes  5.91571e-011 -3.44359e-011 -3.93244e-011
264
root  -1.31063 6.01954 15.532 -45.9401 -4.40915 2.06325
RightUpLeg  -88.9247 -10.1472 5.65939
RightLeg  89.513 16.1923 -7.71532
RightFoot  29.9277 3.02876 -7.963
RightToes  5.82077e-011 -3.18055e-015 -2.98177e-016
Spine  35.8317 1.52173 3.79495
Spine1  14.6816 -0.59469 2.22685
HEad  -20.3168 10.6341 11.4339
LeftShoulder1  -3.88251e-019 9.70628e-020 -3.87848e-018
LeftArm  3.1551 -42.9647 -43.177
LeftForeArm  -9.67288 -29.6248 5.89859
LeftHand  -8.61382 -12.7957 52.5006
RightShoulder  -0.599521 0.671303 -8.20243
RightArm  -21.2343 31.5643 46.722
RightForeArm  42.4961 39.0284 -23.7296
RightHand  -11.3851 14.3038 -60.6077
LeftUpLeg  -87.976 7.27016 1.80834
LeftLeg  89.7494 -13.943 9.37505
LeftFoot  32.5159 -0.035663 0.309737
LeftToes  5.91571e-011 -3.44359e-011 -3.93244e-011
265
root  -1.30095 6.01888 15.5473 -45.9112 -4.53036 2.12426
RightUpLeg  -88.9711 -10.0574 5.68527
RightLeg  89.5223 16.1928 -7.70399
RightFoot  29.9355 2.96122 -7.79135
RightToes  5.82077e-011 -3.18055e-015 -2.98177e-016
Spine  36.1533 1.39252 3.7927
Spine1  14.3303 -0.649986 1.90861
HEad  -20.5476 10.9376 11.6916
LeftShoulder1  -3.88251e-019 9.70628e-020 -3.87848e-018
LeftArm  -3.45714 -42.3022 -44.0366
LeftForeArm  -28.0265 -31.8438 5.67284
LeftHand  -7.57547 -10.9501 51.7144
RightShoulder  -0.542543 1.04836 -7.69691
RightArm  -28.2592 31.4947 49.1275
RightForeArm  35.7659 38.622 -23.2428
RightHand  -9.94243 13.3182 -56.4217
LeftUpLeg  -88.015 7.29825 1.90169
LeftLeg  89.8399 -13.9514 9.29839
LeftFoot  32.4263 -0.0597166 0.366994
LeftToes  5.91571e-011 -3.44359e-011 -3.93244e-011
266
root  -1.30432 6.01734 15.5433 -45.9236 -4.60665 2.15245
RightUpLeg  -88.9642 -9.93314 5.73103
RightLeg  89.4837 16.1939 -7.80315
RightFoot  29.9184 2.97245 -7.82287
RightToes  5.82077e-011 -3.18055e-015 -2.98177e-016
Spine  36.5539 1.22699 3.80585
Spine1  14.113 -0.669471 1.46399
HEad  -20.7573 11.1046 12.0084
LeftShoulder1  -3.88251e-019 9.70628e-020 -3.87848e-018
LeftArm  -9.10355 -42.0178 -44.6569
LeftForeArm  -37.8634 -33.5034 5.70775
LeftHand  -7.10261 -9.38223 53.4487
RightShoulder  -0.495181 1.26509 -7.25445
RightArm  -36.3124 31.7113 52.3981
RightForeArm  20.7193 38.0919 -22.3447
RightHand  -8.42048 11.223 -54.2431
LeftUpLeg  -87.9986 7.29298 2.00643
LeftLeg  89.8934 -13.9538 9.21584
LeftFoot  32.33 -0.0418295 0.32441
LeftToes  5.91571e-011 -3.44359e-011 -3.93244e-011
267
root  -1.31562 6.01578 15.5283 -45.9713 -4.5872 2.09216
RightUpLeg  -88.8956 -9.90605 5.77672
RightLeg  89.4938 16.1938 -7.78295
RightFoot  29.9195 3.11194 -8.17408
RightToes  5.82077e-011 -3.18055e-015 -2.98177e-016
Spine  37.062 1.0844 3.90686
Spine1  13.8256 -0.64302 1.13855
HEad  -20.9844 10.7658 11.8112
LeftShoulder1  -3.88251e-019 9.70628e-020 -3.87848e-018
LeftArm  -10.597 -42.0468 -44.346
LeftForeArm  -35.3059 -33.4209 5.79114
LeftHand  -7.41341 -9.6923 54.4644
RightShoulder  -0.459417 1.2431 -6.82586
RightArm  -40.8537 31.7446 54.6626
RightForeArm  -4.46501 39.4767 -22.1817
RightHand  -7.78635 9.14323 -56.8369
LeftUpLeg  -87.9398 7.1445 2.12916
LeftLeg  89.8757 -13.9542 9.25853
LeftFoot  32.3352 -0.00434753 0.234883
LeftToes  5.91571e-011 -3.44359e-011 -3.93244e-011
